<svg height="510" viewBox="0 0 457 510" width="457" xmlns="http://www.w3.org/2000/svg"><g fill-rule="evenodd"><path d="m298.366272 218.799866c-11.702698-31.559998-41.480042-49.088013-89.329346-52.575989 35.569336-2.134644 73.723999 2.897339 97.230652 13.174683 15.545349 6.802673 25.282654 21.741333 28.632019 43.305297 2.018616 12.985352 1.993286 26.470704 1.101319 35.914673-1.150696 12.170655-3.738648 24.505371-8.165345 35.916016-7.06134 18.200012-21.797302 31.689331-40.335998 40.493317 20.526672-26.929291 22.342651-85.269318 10.866699-116.227997m-188.936035 73.246704c28.307983 93.80664 198.405334 95.781311 231.941345 9.310669 16.137329-41.592041 12.395996-100.914673-13.877319-123.19867-39.001343-34.82135-161.986695-34.82135-200.985352 0-24.369324 20.666626-29.354675 73.197327-17.078674 113.888001"/><path d="m88.096802 194.598389c7.635986-17.455994 18.463989-33.194641 31.749328-46.479981 27.424012-27.422668 65.307984-44.383972 107.153321-44.383972 41.846679 0 79.730652 16.961304 107.154663 44.383972 13.285339 13.28534 24.113342 29.023987 31.749328 46.479981h4.862671v-37.425293c-4.159973-1.820008-7.072021-5.973328-7.072021-10.806702 0-6.507996 5.278686-11.786621 11.786682-11.786621 6.509338 0 11.788025 5.278625 11.788025 11.786621 0 4.833374-2.911987 8.984009-7.070679 10.804016v38.230652c6.818665 1.93866 12.201355 7.266663 14.146668 14.462708 3.917297 14.470642 6.009338 29.697326 6.009338 45.406677 0 15.711975-2.089355 30.935974-6.006653 45.405273-2.472046 9.138672-10.482666 15.266724-19.947998 15.266724h-8.496033c-7.635986 17.455963-18.463989 33.197296-31.749328 46.482635-6.157349 6.154663-12.840027 11.782654-19.977356 16.810669l31.158691 53.966675 68.074646-39.302673c8.545349-4.932007 15.266663-11.633332 19.856018-19.552002 4.538697-7.873352 6.962647-17.042664 6.962647-26.96933v-184.214661c0-9.925354-2.42395-19.093322-6.977295-26.961364-4.574707-7.927979-11.296021-14.626648-19.84137-19.56128l-79.768005-46.052063-79.793335-46.053283c-8.545288-4.932007-17.701294-7.401368-26.849304-7.401368-9.148011 0-18.299988 2.469361-26.848023 7.401368l-79.76532 46.053283-79.79602 46.052063c-8.545288 4.934632-15.266663 11.633301-19.855957 19.554627-4.538696 7.874695-6.962708 17.042663-6.962708 26.968017v184.214661c0 9.926666 2.424012 19.095978 6.977356 26.962677 4.574646 7.925323 11.296021 14.626648 19.841309 19.558655l68 39.26001 30.633362-54.349366c-6.91333-4.91864-13.393311-10.403991-19.37732-16.385315-13.285339-13.285339-24.113342-29.026672-31.749328-46.482635h-8.496033c-9.465332 0-17.476013-6.128052-19.947998-15.266724-3.917297-14.469299-6.006653-29.693298-6.006653-45.405273 0-15.709351 2.09198-30.936035 6.007996-45.406677 2.471985-9.13733 10.481323-15.265381 19.947998-15.265381zm167.631958 307.329345 85.360046-49.281341h.03064l85.359985-49.281311c9.145325-5.278687 16.335999-12.449341 21.247986-20.922669 4.854736-8.426666 7.452026-18.238678 7.452026-28.862671v-197.128021c0-10.622619-2.59729-20.435974-7.468017-28.850647-4.895996-8.482666-12.08667-15.65332-21.231995-20.932007l-85.359985-49.281311h-.03064l-85.360046-49.283996c-9.142639-5.278687-18.942627-7.91864-28.729309-7.91864-9.78534 0-19.585327 2.639953-28.72937 7.91864l-85.358643 49.283996h-.03064l-85.359985 49.281311c-9.145386 5.278687-16.335999 12.449341-21.248047 20.922669-4.854675 8.424011-7.451965 18.237366-7.451965 28.859985v197.128021c0 10.623993 2.59729 20.436005 7.466675 28.853333 4.897338 8.482666 12.087951 15.65332 21.233337 20.932007l85.359985 49.281311h.03064l85.350647 49.294678c9.138672 5.269348 18.940002 7.905334 28.737366 7.905334 9.797302 0 19.599975-2.635986 28.729309-7.918671m-21.517334-9.03067v-61.533325c27.670715-1.134644 55.154663-8.712006 80.119995-22.733337l18.384033 31.841339-78.866699 45.53601c-6.287964 3.64267-12.91864 5.934662-19.637329 6.889313m-82.674622-106.185303-5.132019 9.105317c24.951965 14.046661 52.713318 21.070648 80.492005 21.070648 27.65332 0 55.285339-6.958649 80.14801-20.874634l-5.17334-8.96402c-22.083984 12.574677-47.641357 19.758667-74.872009 19.758667-27.474671 0-53.245362-7.311981-75.462647-20.095978m68.047974 44.651978v61.503998.029327c-6.718689-.954651-13.350647-3.246643-19.637329-6.889313l-78.867981-45.53601 18.383972-31.841339c24.725342 13.889343 52.00531 21.480011 80.121338 22.733337m-90.709351-77.965332c-25.111999-25.112-40.646667-59.808014-40.646667-98.12796 0-38.322693 15.534668-73.013367 40.646667-98.126709 25.112-25.109314 59.804016-40.643982 98.124024-40.643982 38.322693 0 73.013305 15.534668 98.125305 40.643982 25.111999 25.113342 40.646667 59.804016 40.646667 98.126709 0 38.319946-15.534668 73.01596-40.646667 98.12796-25.112 25.110657-59.802612 40.64267-98.125305 40.64267-38.320008 0-73.012024-15.532013-98.124024-40.64267"/></g></svg>